<svg width="216" height="75" viewBox="0 0 216 75" fill="none" xmlns="http://www.w3.org/2000/svg">
<rect y="8.2441" width="128.043" height="60.4824" fill="#20201F"/>
<path d="M30.8332 22.7805L30.5861 26.3631H9.33747V17.6536H39.975V24.2629L18.1705 54.7152L16.6262 51.009H40.2221V59.7185H8.90509V53.0474L30.8332 22.7805Z" fill="#FAFAF9"/>
<path d="M51.9674 43.5349H71.7336V51.8738H51.9674V43.5349ZM42.7638 59.7185L57.712 17.6536H67.6568L81.8638 59.7185H72.7219L61.2328 23.8305H64.1978L51.8439 59.7185H42.7638Z" fill="#FAFAF9"/>
<path d="M85.7234 59.7185V17.6536H94.7417V59.7185H85.7234ZM108.887 59.7185L91.5297 39.4582V38.0375L109.443 17.6536H120.623L100.919 40.0759L101.166 37.358L120.623 59.7185H108.887Z" fill="#FAFAF9"/>
<path d="M128.83 68.7789C128.519 68.9948 127.805 68.7486 126.688 68.0403C125.571 67.3842 124.637 66.6457 123.884 65.8248C123.508 65.4144 123.262 64.9749 123.147 64.5065C123.032 64.0381 123.039 63.1485 123.168 61.8377C123.365 61.2579 123.459 60.7065 123.447 60.1835C123.488 59.6594 123.507 59.2927 123.502 59.0835C123.495 58.7698 123.558 58.0359 123.691 56.8819C123.876 55.7269 124.06 54.5195 124.243 53.2598C124.424 51.9478 124.586 50.9502 124.729 50.267C124.728 50.2147 124.75 50.0311 124.796 49.7161C124.894 49.4001 124.968 49.1631 125.017 49.005C125.112 48.5321 125.23 47.954 125.373 47.2707C125.516 46.5874 125.653 45.6688 125.786 44.5149C126.177 43.1984 126.491 41.9097 126.726 40.6489C127.013 39.3347 127.151 38.4422 127.141 37.9716C127.12 37.0302 127.473 36.3424 128.198 35.9082C128.245 35.6456 128.394 35.2499 128.645 34.7213C128.895 34.1403 129.121 33.6646 129.323 33.294C130.308 30.2903 131.122 27.8921 131.766 26.0993C132.41 24.3064 133.085 22.7483 133.791 21.425C134.087 20.5292 134.408 19.6066 134.755 18.6573C135.154 17.7069 135.558 16.9657 135.967 16.4336C136.318 15.6935 136.928 14.7909 137.798 13.7257C138.718 12.607 139.693 11.5396 140.721 10.5233C141.749 9.50694 142.572 8.75665 143.192 8.27238C144.334 7.67218 145.399 7.17827 146.388 6.79066C147.377 6.40306 148.422 6.19736 149.524 6.17356C150.521 6.15204 151.392 6.36868 152.136 6.82349C152.932 7.22488 154.106 8.08901 155.657 9.41589C156.196 10.0844 156.473 10.7325 156.486 11.36C156.5 11.9876 156.38 12.5134 156.127 12.9375C155.777 13.7822 155.249 14.84 154.542 16.111C153.833 17.3297 153.148 18.4433 152.488 19.4516C151.826 20.4077 151.338 20.9153 151.025 20.9744C150.403 21.3541 149.749 21.4728 149.064 21.3307C148.379 21.1885 148.027 20.7252 148.01 19.9407C148.002 19.5747 147.995 19.2347 147.988 18.9209C148.034 18.606 148.057 18.4486 148.057 18.4486C148.2 17.7653 148.37 17.1599 148.569 16.6324C148.82 16.1038 149.046 15.6541 149.248 15.2835C149.653 14.5946 149.744 13.9386 149.521 13.3156C149.35 12.6914 148.688 12.4441 147.536 12.5736C147.381 12.6816 147.072 12.9499 146.609 13.3784C146.197 13.7536 145.734 14.2083 145.221 14.7426C144.759 15.2235 144.349 15.7032 143.992 16.1819C143.634 16.6082 143.457 16.8998 143.46 17.0567C143.46 17.0567 143.309 17.3477 143.007 17.9298C142.755 18.4584 142.349 19.0689 141.786 19.7612C141.43 20.2921 141.126 20.7957 140.874 21.2721C140.622 21.7484 140.499 22.1173 140.504 22.3788C140.509 22.588 140.486 22.7716 140.437 22.9297C140.388 23.0877 140.259 23.169 140.049 23.1735C140.049 23.1735 139.95 23.4372 139.751 23.9648C139.605 24.4911 139.33 25.1249 138.926 25.8662C138.728 26.3937 138.502 26.8956 138.25 27.3719C138.049 27.7948 137.846 28.1132 137.641 28.3269L137.565 28.4855C137.565 28.4855 137.441 28.8021 137.192 29.4353C136.995 30.0151 136.772 30.6217 136.523 31.2549C136.274 31.8881 136.151 32.257 136.153 32.3616C136.158 32.5708 136.475 32.6686 137.104 32.655C137.734 32.6414 138.493 32.5466 139.381 32.3704C140.269 32.142 141.13 31.9141 141.965 31.6867C142.695 31.4617 143.217 31.3458 143.532 31.339C143.847 31.3322 144.348 31.426 145.034 31.6205C145.46 31.8729 145.811 32.3362 146.088 33.0104C146.364 33.6323 146.562 34.2821 146.681 34.9597C146.852 35.5838 146.889 36.0539 146.79 36.37C146.742 36.5803 146.145 36.881 144.999 37.272C143.905 37.6619 142.809 37.9733 141.712 38.2063C140.772 38.4359 139.702 38.6944 138.501 38.982C137.351 39.2161 136.333 39.4735 135.447 39.7543C134.559 39.9827 134.091 40.2021 134.044 40.4124C133.834 40.417 133.653 40.5517 133.501 40.8166C133.402 41.0803 133.354 41.3168 133.359 41.526C133.374 42.2059 133.254 42.7578 133.001 43.1818C132.903 43.4979 132.733 44.1556 132.492 45.1549C132.303 46.1008 132.089 47.1518 131.852 48.308C131.666 49.4108 131.478 50.4613 131.29 51.4595C131.153 52.4042 131.088 53.0335 131.095 53.3473C130.788 53.7202 130.614 54.1948 130.574 54.7712C130.533 55.2953 130.517 55.7666 130.526 56.185C130.325 56.6079 130.202 57.0029 130.158 57.3702C130.112 57.6851 130.092 57.9471 130.096 58.1563C130.097 58.2086 130.1 58.3132 130.103 58.4701C130.106 58.627 130.083 58.7845 130.034 58.9425C129.993 59.4666 129.929 60.1482 129.842 60.9872C129.809 61.8774 129.801 62.7408 129.82 63.5776L129.633 65.8576C129.595 66.5386 129.502 67.1162 129.355 67.5903C129.261 68.1155 129.086 68.5117 128.83 68.7789Z" fill="#FAFAF9"/>
<path d="M149.575 57.5002C149.146 57.0909 148.818 56.4701 148.59 55.6379C148.414 54.8046 148.344 53.9951 148.38 53.2095C148.414 52.3716 148.532 51.7412 148.733 51.3183C148.724 50.8999 148.77 50.585 148.87 50.3735C149.022 50.1086 149.069 49.8722 149.012 49.6641C148.955 49.456 149 49.0888 149.146 48.5625C149.292 48.0361 149.439 47.5359 149.586 47.0618C149.935 46.2171 150.332 45.1359 150.776 43.8183C151.218 42.4484 151.661 41.0784 152.104 39.7085C152.546 38.2863 152.913 37.0749 153.207 36.0745C153.499 35.0217 153.669 34.3902 153.717 34.1799C153.703 33.5523 154.116 33.2033 154.954 33.1329C155.579 32.9101 156.346 33.1552 157.253 33.8681C158.161 34.581 158.886 35.3501 159.429 36.1756C159.858 36.5849 160.027 37.1306 159.937 37.8127C159.847 38.4949 159.526 39.4697 158.976 40.7373C158.776 41.1602 158.529 41.8719 158.235 42.8724C157.993 43.8194 157.826 44.6078 157.735 45.2377C157.534 45.6606 157.285 46.2677 156.987 47.0589C156.741 47.7968 156.52 48.5079 156.324 49.1923C156.225 49.456 156.131 49.9551 156.042 50.6895C155.952 51.3717 155.836 52.0805 155.694 52.8161C155.553 53.5517 155.355 54.1315 155.102 54.5555C154.676 56.7099 153.863 57.9832 152.665 58.3753C151.518 58.7663 150.488 58.4746 149.575 57.5002ZM157.395 25.8597C156.809 25.4538 156.353 24.9666 156.025 24.3982C155.749 23.7762 155.58 23.2305 155.518 22.761C155.507 22.2903 155.554 22.0015 155.656 21.8947C156.169 21.3081 156.598 20.5401 156.945 19.5908C157.344 18.6404 157.772 17.7679 158.227 16.9732C158.329 16.8141 158.455 16.602 158.607 16.3372C158.81 16.0188 159.016 15.8313 159.225 15.7744C159.845 15.3425 160.712 15.3499 161.824 15.7968C162.988 16.2425 163.842 16.8781 164.384 17.7036C164.878 18.687 165.031 19.704 164.844 20.7545C164.709 21.8038 164.182 22.914 163.262 24.0849C162.498 25.1479 161.516 25.8492 160.316 26.1891C159.115 26.4766 158.141 26.3669 157.395 25.8597Z" fill="#FAFAF9"/>
<path d="M175.057 58.7551C174.318 58.5617 173.576 58.2115 172.83 57.7044C172.084 57.1973 171.31 56.6123 170.508 55.9494C169.861 55.1263 169.398 54.3776 169.121 53.7034C168.843 52.9769 168.668 52.1435 168.595 51.2033C168.574 50.2096 168.546 48.9545 168.514 47.4379C168.5 46.8103 168.586 45.919 168.771 44.7639C169.008 43.6077 169.245 42.3992 169.48 41.1384C169.768 39.8764 170.032 38.772 170.275 37.8249C170.515 36.8256 170.659 36.1685 170.704 35.8536C170.847 35.1703 170.576 34.7838 169.892 34.6939C169.208 34.604 168.446 34.5943 167.608 34.6647C166.821 34.6817 166.295 34.6146 166.029 34.4634C165.818 34.4156 165.707 34.1564 165.697 33.6857C165.686 33.1627 165.68 32.9013 165.68 32.9013C165.676 32.6921 165.568 32.5636 165.357 32.5158C165.145 32.4158 164.957 32.2367 164.794 31.9786C164.685 31.7717 164.807 31.3766 165.162 30.7934C165.517 30.2102 165.982 29.8601 166.557 29.743C167.027 29.6282 167.733 29.5345 168.677 29.4618C169.619 29.3368 170.559 29.1334 171.498 28.8515C172.488 28.5162 173.239 28.0291 173.75 27.3902C174.197 26.2294 174.695 24.9891 175.244 23.6692C175.792 22.297 176.317 21.1084 176.821 20.1034C177.323 19.0461 177.676 18.3845 177.88 18.1185C178.762 17.6285 179.676 17.4257 180.623 17.5099C181.568 17.5418 182.313 17.9704 182.855 18.7959C183.125 19.1563 183.341 19.4133 183.502 19.5667C183.715 19.7191 183.799 19.9527 183.753 20.2677C183.76 20.5814 183.562 21.1613 183.161 22.0071C182.81 22.7995 182.207 24.0421 181.352 25.7348C181.101 26.2635 180.875 26.7393 180.674 27.1622C180.472 27.5328 180.371 27.7181 180.371 27.7181C180.582 27.7658 180.897 27.7852 181.317 27.7761C181.737 27.7671 182.261 27.7296 182.889 27.6637C183.464 27.5466 184.092 27.4546 184.773 27.3876C185.453 27.2683 186.056 27.2552 186.583 27.3485C187.79 27.3224 188.689 27.6431 189.281 28.3105C189.873 28.9779 190.206 29.834 190.281 30.8788C190.399 31.4518 190.199 31.9532 189.684 32.3829C189.168 32.8126 188.202 33.0428 186.785 33.0734C186.313 33.0836 185.632 33.1244 184.741 33.196C183.85 33.2676 182.933 33.3397 181.99 33.4124C181.047 33.4851 180.235 33.5811 179.555 33.7004C178.927 33.7663 178.614 33.8515 178.616 33.9561C178.461 34.0641 178.207 34.4882 177.856 35.2283C177.556 35.9149 177.233 36.7591 176.887 37.7606C176.594 38.7611 176.325 39.7087 176.082 40.6034C175.753 42.3894 175.528 44.1209 175.407 45.7978C175.286 47.4748 175.291 48.9397 175.423 50.1925C175.607 51.392 175.94 52.2481 176.424 52.7609C176.906 53.2214 177.614 53.2061 178.549 52.715C179.534 52.1705 180.439 51.5492 181.264 50.8512C182.192 50.0464 183 49.7935 183.689 50.0925C184.376 50.3393 184.808 50.9055 184.985 51.7912C185.213 52.6234 184.997 53.5437 184.336 54.5521C183.728 55.5593 182.854 56.4153 181.714 57.1201C180.575 57.8249 179.404 58.3211 178.203 58.6086C177.003 58.9485 175.955 58.9973 175.057 58.7551Z" fill="#FAFAF9"/>
<path d="M198.389 45.1446C196.925 45.4378 195.758 44.8613 194.887 43.4151C194.015 41.9166 194.01 39.2745 194.873 35.4886C195.174 34.8543 195.424 34.2472 195.621 33.6674C195.818 33.0353 195.912 32.5362 195.904 32.1701C196.099 31.4857 196.344 30.6956 196.64 29.7997C196.987 28.8504 197.336 27.9796 197.686 27.1872C198.035 26.3425 198.286 25.7877 198.437 25.5228C198.647 25.5183 198.853 25.3307 199.055 24.9601C199.31 24.5884 199.433 24.2195 199.425 23.8534C199.416 23.435 199.484 22.9626 199.63 22.4363C199.829 21.9087 200.031 21.5381 200.236 21.3244C200.231 21.0629 200.329 20.773 200.533 20.4547C200.736 20.1364 200.835 19.8726 200.83 19.6634C200.826 19.4543 200.874 19.2701 200.976 19.1109C201.13 18.9506 201.205 18.7659 201.2 18.5567C201.654 17.7097 202.231 16.4677 202.931 14.8306C203.682 13.1401 204.404 11.3717 205.1 9.52545C205.847 7.67804 206.468 6.04266 206.962 4.61929C207.456 3.19593 207.7 2.32736 207.693 2.01357C207.789 1.59293 207.938 1.1973 208.14 0.82668C208.342 0.456068 208.654 0.318526 209.076 0.414056C209.282 0.252633 209.595 0.16739 210.015 0.158326C210.434 0.0969619 210.748 0.0640142 210.958 0.0594821C210.958 0.0594821 211.196 0.158979 211.673 0.357972C212.15 0.556966 212.576 0.861688 212.952 1.27214C213.38 1.62915 213.627 2.12088 213.693 2.74732C213.759 3.37376 213.799 4.00076 213.812 4.62833C213.781 5.62312 213.438 6.75544 212.783 8.02531C212.128 9.29518 211.398 10.6975 210.591 12.2323C210.088 13.2372 209.583 14.1899 209.078 15.0903C208.625 15.9896 208.401 16.5438 208.405 16.753C208.41 16.9622 208.311 17.2782 208.111 17.7011C207.91 18.124 207.685 18.6521 207.436 19.2853C207.133 19.8151 206.831 20.4495 206.532 21.1884C206.286 21.9263 206.064 22.6112 205.868 23.2433C205.671 23.8232 205.574 24.1915 205.577 24.3484C205.529 24.5587 205.455 24.7696 205.355 24.9811C205.307 25.1914 205.18 25.4034 204.975 25.6171C204.765 25.6217 204.637 25.7814 204.591 26.0963C204.597 26.3578 204.6 26.4885 204.6 26.4885C204.604 26.6977 204.484 27.1974 204.238 27.9875C204.044 28.7242 203.696 29.6212 203.194 30.6785C202.257 33.4718 201.597 35.7097 201.213 37.3923C200.829 39.0226 200.596 40.4141 200.516 41.5669C200.438 42.8243 200.168 43.6935 199.706 44.1744C199.243 44.6029 198.804 44.9264 198.389 45.1446ZM194.48 57.3939C193.387 57.836 192.473 58.0389 191.737 58.0025C191.003 58.0183 190.182 57.6959 189.276 57.0353C188.204 56.012 187.814 54.974 188.106 53.9213C188.45 52.8151 189.371 51.7488 190.872 50.7222C191.906 50.0197 192.66 49.6634 193.132 49.6532C193.655 49.5895 194.42 49.7562 195.426 50.153C197.234 51.2127 198.047 52.4247 197.867 53.789C197.685 55.101 196.556 56.3026 194.48 57.3939Z" fill="#FAFAF9"/>
</svg>
