<svg width="216" height="110" viewBox="0 0 216 110" fill="none" xmlns="http://www.w3.org/2000/svg">
<path d="M20.792 31.1829C19.743 30.5377 19.1139 29.8817 18.9047 29.2149C18.7195 28.5474 18.9455 28.0014 19.5827 27.5769C19.7242 27.4772 19.9998 27.4581 20.4095 27.5196C20.8433 27.5804 21.1709 27.716 21.3923 27.9264C21.8833 28.3459 22.4299 28.5959 23.0322 28.6764C23.6591 28.7803 24.4133 28.7009 25.2948 28.4381C26.2944 28.1002 27.0523 27.6966 27.5684 27.2272C28.1079 26.7331 28.703 26.0696 29.3537 25.2365C29.8409 24.5758 30.1724 23.931 30.3483 23.3023C30.5481 22.6729 30.6296 22.1066 30.5926 21.6034C30.579 21.0756 30.4489 20.6828 30.2021 20.4251C29.5807 19.6008 28.8221 19.0442 27.9264 18.7551C27.03 18.4421 25.867 18.4961 24.4374 18.917C24.2701 18.9453 24.0194 18.9998 23.6854 19.0804C23.3513 19.1611 23.0533 19.2408 22.7912 19.3195C22.5285 19.3743 22.3852 19.402 22.3612 19.4026C22.1945 19.4549 22.0632 19.4823 21.9672 19.4848C21.8712 19.4873 21.7544 19.6103 21.6166 19.8539C21.5022 20.073 21.3223 20.5457 21.0769 21.2723C20.8309 21.9749 20.4629 23.0647 19.9727 24.5418C19.5066 26.0183 19.1016 27.0731 18.7578 27.7061C18.4374 28.3146 18.1446 28.5982 17.8794 28.557C17.6137 28.4919 17.307 28.2357 16.9593 27.7885C16.7587 27.4575 16.5332 27.0912 16.2828 26.6895C16.0564 26.2872 16.0576 25.8671 16.2864 25.429C16.4008 25.21 16.4918 25.0156 16.5594 24.8458C16.6265 24.652 16.7141 24.3256 16.8223 23.8667C16.933 23.5037 17.1449 22.8741 17.4579 21.9777C17.7943 21.0568 18.187 19.9903 18.6359 18.7783C19.0842 17.5424 19.5556 16.2698 20.0501 14.9607C20.5445 13.6515 21.0169 12.4149 21.467 11.2509C21.9412 10.0863 22.3361 9.10386 22.6516 8.30347C22.9683 7.55106 23.1583 7.00599 23.2216 6.66825C23.285 6.33051 23.2563 6.15118 23.1358 6.13028C23.1327 6.01032 23.0939 5.90328 23.0195 5.80917C22.9444 5.69106 22.9176 5.58372 22.9391 5.48713C22.9367 5.39116 23.1372 5.25395 23.5407 5.0755C23.9683 4.89644 24.4201 4.72875 24.8962 4.57244C25.3724 4.41613 25.719 4.35919 25.9362 4.40161C26.0561 4.39852 26.2001 4.39481 26.368 4.39049C26.5354 4.36217 26.6178 4.30003 26.6153 4.20406C26.6873 4.2022 26.9146 4.17234 27.2972 4.11447C27.6799 4.0566 28.0997 4.04579 28.5568 4.08203C30.168 4.18459 31.4996 4.61845 32.5517 5.38361C33.6031 6.12479 34.1388 7.3474 34.1586 9.05146C34.1451 9.45994 33.9908 9.99209 33.6956 10.6479C33.4004 11.3037 33.0212 11.9617 32.558 12.6218C32.1189 13.2814 31.6415 13.8579 31.1261 14.3513C30.821 14.6232 30.4922 14.9078 30.1397 15.205C29.8106 15.4775 29.5166 15.7132 29.2576 15.9119C29.022 16.086 28.9042 16.1731 28.9042 16.1731C28.9042 16.1731 29.0011 16.2066 29.1949 16.2736C29.3887 16.3407 29.5945 16.4074 29.8123 16.4738C30.9264 16.8533 31.8034 17.3468 32.4433 17.9546C33.1071 18.5617 33.5852 19.4137 33.8776 20.5105C33.9828 20.8679 33.9942 21.3118 33.9119 21.8421C33.8535 22.3717 33.7591 22.9023 33.6287 23.4339C33.4978 23.9414 33.3529 24.3773 33.1943 24.7415C33.0306 24.9138 32.9033 25.0971 32.8123 25.2915C32.7207 25.4619 32.6748 25.5471 32.6748 25.5471C32.6761 25.5951 32.585 25.7895 32.4018 26.1304C32.2179 26.4472 31.9989 26.8009 31.7449 27.1916C31.4908 27.5823 31.2476 27.9247 31.0151 28.2187C30.7801 28.4169 30.439 28.6897 29.9918 29.0374C29.5692 29.4084 29.0983 29.7686 28.5792 30.1181C28.084 30.467 27.6106 30.7312 27.1591 30.9109C26.4947 31.2161 25.7439 31.4275 24.9067 31.5451C24.094 31.6861 23.3146 31.7182 22.5684 31.6413C21.8228 31.5885 21.2306 31.4357 20.792 31.1829ZM22.9985 16.1811C22.9985 16.1811 23.1895 16.1402 23.5715 16.0584C23.9769 15.9519 24.4183 15.8445 24.8957 15.7362C25.3724 15.6038 25.7295 15.4866 25.967 15.3845C26.0851 15.3094 26.2505 15.2091 26.4634 15.0836C26.7002 14.9574 26.9355 14.7713 27.1692 14.5252C27.4971 14.2047 27.848 13.8475 28.222 13.4538C28.5954 13.036 28.9561 12.5946 29.3043 12.1295C29.6764 11.6637 29.9876 11.1635 30.2379 10.6289C30.7675 9.751 31.0514 9.11948 31.0894 8.73437C31.1275 8.34926 30.9866 8.00478 30.6667 7.70091C30.444 7.44256 30.1391 7.25835 29.7522 7.14827C29.3646 7.01421 28.9429 6.95304 28.487 6.96478C28.0546 6.95192 27.6359 7.01071 27.2312 7.14118C26.9217 7.24518 26.6849 7.37132 26.5207 7.51959C26.3558 7.64388 26.2768 7.83798 26.2836 8.10189C26.2891 8.31782 26.223 8.5476 26.0853 8.79123C25.9709 9.01024 25.8552 9.18128 25.7383 9.30433C25.7187 9.47289 25.639 9.643 25.4994 9.81465C25.3832 9.96169 25.325 10.0352 25.325 10.0352C25.3275 10.1312 25.1793 10.4351 24.8804 10.947C24.6048 11.4342 24.3108 12.138 23.9984 13.0584C23.5931 14.1011 23.3244 14.8523 23.1922 15.3119C23.06 15.7714 22.9954 16.0612 22.9985 16.1811ZM36.2996 27.5785C36.1028 27.3915 35.9514 27.1073 35.8455 26.7259C35.7637 26.3439 35.7301 25.9726 35.7448 25.6121C35.7589 25.2276 35.8115 24.9382 35.9025 24.7438C35.8976 24.5518 35.9179 24.4073 35.9634 24.3101C36.0323 24.1882 36.0535 24.0797 36.027 23.9843C36.0006 23.889 36.0202 23.7204 36.086 23.4786C36.1518 23.2368 36.2179 23.0071 36.2843 22.7893C36.4424 22.4011 36.6217 21.9043 36.8221 21.2989C37.022 20.6696 37.2219 20.0402 37.4217 19.4109C37.621 18.7575 37.7867 18.2011 37.9189 17.7415C38.0505 17.258 38.1271 16.9679 38.1486 16.8713C38.1412 16.5834 38.3291 16.4225 38.7124 16.3886C38.9978 16.2853 39.3488 16.3963 39.7653 16.7217C40.1818 17.047 40.515 17.3986 40.7648 17.7763C40.9616 17.9633 41.0401 18.2133 41.0002 18.5265C40.9602 18.8396 40.8157 19.2875 40.5666 19.8701C40.4756 20.0645 40.364 20.3915 40.2317 20.851C40.1229 21.286 40.0482 21.648 40.0076 21.9371C39.9166 22.1315 39.8038 22.4105 39.6691 22.7741C39.5578 23.1131 39.4581 23.4398 39.3702 23.7542C39.3253 23.8754 39.2832 24.1045 39.2439 24.4416C39.2039 24.7548 39.1523 25.0802 39.0889 25.4179C39.0256 25.7557 38.9364 26.0221 38.8214 26.2171C38.6308 27.2063 38.2618 27.792 37.7143 27.9742C37.1908 28.1557 36.7193 28.0238 36.2996 27.5785ZM39.8147 13.0472C39.5458 12.862 39.336 12.6393 39.1853 12.3791C39.0579 12.0943 38.9794 11.8443 38.9499 11.629C38.9443 11.413 38.9649 11.2805 39.0117 11.2312C39.2448 10.9611 39.4398 10.608 39.5966 10.1718C39.7774 9.73502 39.9711 9.3339 40.1778 8.96846C40.2239 8.89525 40.2814 8.79773 40.3503 8.67592C40.4426 8.5295 40.5364 8.44305 40.6317 8.41659C40.9147 8.21724 41.3109 8.21904 41.8203 8.42199C42.3537 8.62433 42.7453 8.91434 42.9951 9.29203C43.2227 9.74232 43.2948 10.2086 43.2112 10.6909C43.1515 11.1726 42.9126 11.683 42.4943 12.2219C42.1468 12.711 41.699 13.0346 41.1509 13.1928C40.6022 13.327 40.1568 13.2784 39.8147 13.0472ZM46.923 28.5653C45.6034 28.5993 44.5739 28.2417 43.8343 27.4925C43.1188 26.7426 42.7406 25.576 42.6998 23.9925C42.6776 23.1288 42.8091 22.1771 43.0945 21.1374C43.4038 20.0971 43.8097 19.0783 44.3122 18.081C44.8387 17.0832 45.4165 16.216 46.0458 15.4795C46.6744 14.7191 47.3089 14.1866 47.9493 13.882C48.1861 13.7559 48.4359 13.6654 48.6985 13.6106C48.9846 13.5312 49.2596 13.4881 49.5235 13.4813C49.8114 13.4739 50.1239 13.4899 50.461 13.5292C50.8215 13.5439 51.1593 13.6073 51.4743 13.7192C52.0304 13.8729 52.5186 14.1845 52.9388 14.6538C53.383 15.1225 53.6169 15.8127 53.6404 16.7244C53.6465 16.9643 53.6293 17.2289 53.5888 17.518C53.5476 17.7832 53.4704 18.0492 53.3572 18.3162C53.0657 19.116 52.6054 19.8841 51.9761 20.6206C51.3709 21.3564 50.724 21.8772 50.0357 22.183C49.8462 22.284 49.6561 22.3609 49.4654 22.4138C49.2981 22.4421 49.1185 22.4587 48.9266 22.4637C48.4227 22.4767 47.965 22.4164 47.5534 22.283C47.1659 22.1489 46.801 21.9662 46.459 21.735L46.1646 21.4905L45.9939 21.855C45.8377 22.3152 45.7276 22.7021 45.6637 23.0159C45.6237 23.329 45.6056 23.5576 45.6093 23.7015C45.6167 23.9894 45.6365 24.289 45.6685 24.6003C45.6999 24.8876 45.778 25.1256 45.9029 25.3145C46.002 25.432 46.1244 25.5248 46.2702 25.5931C46.44 25.6608 46.6449 25.6915 46.8848 25.6853C47.0288 25.6816 47.1607 25.6782 47.2807 25.6751C47.424 25.6474 47.5434 25.6203 47.6387 25.5939C48.0681 25.4868 48.412 25.3219 48.6703 25.0992C48.952 24.8518 49.2467 24.6402 49.5543 24.4642L49.6964 24.3885L49.6576 24.2815C50.0599 24.055 50.3324 23.916 50.4751 23.8643C50.6172 23.7886 50.7236 23.7258 50.7944 23.676C50.8879 23.5776 50.9946 23.5268 51.1146 23.5237C51.4492 23.4671 51.7756 23.5547 52.0937 23.7866C52.4351 23.9939 52.6102 24.2654 52.6188 24.6013C52.6225 24.7453 52.5204 24.976 52.3125 25.2935C52.1286 25.6103 51.8847 25.9287 51.5809 26.2486C51.3004 26.5439 51.0064 26.7796 50.6988 26.9556C50.6274 26.9814 50.5564 27.0192 50.4856 27.0691C50.4143 27.0949 50.3432 27.1328 50.2725 27.1826L50.3085 27.1817C50.1 27.4751 49.8877 27.6247 49.6718 27.6302L49.3839 27.6376C49.2923 27.808 48.985 27.996 48.4621 28.2015C47.9399 28.4311 47.4268 28.5523 46.923 28.5653ZM48.571 19.844C48.7869 19.8384 48.9779 19.7975 49.144 19.7212C49.3341 19.6443 49.5119 19.5557 49.6773 19.4554C50.2427 19.0327 50.6009 18.4953 50.7522 17.8432C50.9035 17.191 50.8308 16.7008 50.5343 16.3723C50.4844 16.3015 50.4232 16.2551 50.3506 16.233C50.2774 16.1868 50.1928 16.165 50.0968 16.1675C49.8329 16.1743 49.5352 16.266 49.2036 16.4426C48.8961 16.6185 48.5903 16.8665 48.2865 17.1864C47.9826 17.5063 47.7043 17.8856 47.4515 18.3243L47.0031 19.0921C47.0505 19.0669 47.0862 19.0539 47.1101 19.0533C47.1575 19.0281 47.1932 19.0152 47.2172 19.0146C47.4331 19.009 47.5789 19.0773 47.6546 19.2194C47.7303 19.3615 47.818 19.5033 47.9176 19.6447C48.0413 19.7856 48.2591 19.852 48.571 19.844ZM67.6126 26.5199C67.0836 26.4856 66.6369 26.389 66.2727 26.2303C65.9319 26.0471 65.6464 25.6823 65.4163 25.136C65.3104 24.7546 65.2522 24.36 65.2417 23.9521C65.2546 23.5197 65.2801 23.1109 65.3182 22.7258C65.3557 22.3167 65.3707 21.9682 65.3633 21.6803C65.362 21.6323 65.3596 21.5363 65.3559 21.3923C65.3521 21.2484 65.3487 21.1164 65.3457 20.9965C65.2884 20.6378 65.1869 20.4244 65.0411 20.3561C64.9186 20.2632 64.703 20.2808 64.3942 20.4088C63.8966 20.6617 63.3531 20.9998 62.7638 21.4231C62.1979 21.8218 61.5978 22.2934 60.9636 22.8379C60.3528 23.3578 59.7189 23.9143 59.062 24.5074C58.549 25.0968 58.1652 25.5749 57.9105 25.9415C57.6799 26.3076 57.4326 26.494 57.1687 26.5008C56.9792 26.6017 56.7746 26.583 56.555 26.4446C56.3354 26.3062 56.1031 26.1441 55.8583 25.9584C55.6854 25.7708 55.4753 25.5361 55.2279 25.2544C55.004 24.948 54.8668 24.7475 54.8163 24.6528C54.8064 24.2689 54.8214 23.9204 54.8614 23.6073C54.9253 23.2935 55.013 22.9672 55.1243 22.6282C55.2596 22.2886 55.4176 21.9004 55.5985 21.4636C55.6901 21.2932 55.7697 21.1231 55.8374 20.9533C55.9284 20.7589 56.0311 20.5521 56.1455 20.3331C56.2328 19.9948 56.3549 19.6075 56.5117 19.1713C56.6926 18.7345 56.862 18.322 57.02 17.9338C57.2679 17.3032 57.4579 16.7582 57.5901 16.2986C57.7223 15.839 57.8296 15.3441 57.912 14.8138C57.8868 14.7664 57.8969 14.6942 57.9424 14.597C57.988 14.4998 58.0584 14.4379 58.1537 14.4115L58.1897 14.4105L58.2257 14.4096C58.3906 14.2853 58.7022 14.2653 59.1605 14.3495C59.6422 14.4091 60.0055 14.5318 60.2503 14.7176C60.7653 15.1365 61.0197 15.6941 61.0136 16.3905C61.0076 17.0869 60.6712 18.0078 60.0044 19.1534C59.8464 19.5416 59.6757 19.9061 59.4924 20.2469C59.3325 20.5631 59.2541 20.7812 59.2572 20.9012C59.2572 20.9012 59.3513 20.8268 59.5395 20.6779C59.7278 20.529 59.9514 20.3551 60.2103 20.1564C60.4687 19.9337 60.6923 19.7599 60.8811 19.635C60.998 19.5119 61.2563 19.2892 61.6562 18.9668C62.0554 18.6204 62.4903 18.2611 62.9609 17.8888C63.4314 17.5166 63.8082 17.2308 64.0912 17.0315C64.3501 16.8327 64.6811 16.6321 65.084 16.4297C65.4863 16.2033 65.7354 16.0888 65.8314 16.0863C66.0713 16.0802 66.3614 16.1567 66.7016 16.316C67.0658 16.4747 67.395 16.6703 67.689 16.9028C68.0065 17.1107 68.1917 17.31 68.2446 17.5007C68.2471 17.5967 68.2385 17.7289 68.2188 17.8975C68.1985 18.0421 68.1899 18.1743 68.193 18.2943C68.1789 18.6788 68.179 19.1469 68.1932 19.6987C68.2308 20.2259 68.2567 20.7655 68.2709 21.3173C68.2845 21.8451 68.2489 22.3262 68.164 22.7605C68.164 22.7605 68.1766 22.7842 68.2019 22.8316C68.2265 22.8549 68.2517 22.9023 68.2775 22.9737C68.2542 22.9983 68.2434 23.0466 68.2453 23.1185C68.2705 23.1659 68.2831 23.1896 68.2831 23.1896C68.3354 23.3563 68.3877 23.523 68.44 23.6897C68.5163 23.8558 68.6052 24.0456 68.7068 24.259C68.8077 24.4485 68.9221 24.6976 69.0501 25.0064C69.0342 25.3189 68.8623 25.6355 68.5344 25.956C68.2299 26.252 67.9227 26.4399 67.6126 26.5199ZM76.1034 26.2292C75.8678 26.4034 75.5704 26.5071 75.2111 26.5403C74.8752 26.549 74.5719 26.4247 74.3012 26.1676C73.8342 25.7475 73.4164 24.906 73.0478 23.6431C72.6785 22.3561 72.4655 20.609 72.4086 18.4018C72.4793 17.4156 72.5038 16.5027 72.4821 15.663C72.4845 14.8226 72.4845 14.3545 72.482 14.2585C72.7416 14.0838 73.0762 14.0271 73.4859 14.0886C73.919 14.1255 74.2691 14.2005 74.5361 14.3136C74.7791 14.4274 74.9517 14.603 75.0538 14.8405C75.18 15.0773 75.2631 15.5073 75.3031 16.1305C75.3665 16.7291 75.4143 17.6521 75.4465 18.8997C75.3992 19.8613 75.371 20.6302 75.3618 21.2067C75.3527 21.7831 75.3853 22.1184 75.4598 22.2125C75.56 22.378 75.6105 22.4727 75.6111 22.4967C75.6111 22.4967 75.7864 22.3121 76.137 21.943C76.3222 21.6741 76.5172 21.321 76.722 20.8835C76.9508 20.4455 77.1457 20.0924 77.3069 19.8241C77.5621 19.4815 77.7937 19.1514 78.0016 18.8339C78.2335 18.5158 78.3962 18.3076 78.4897 18.2092C78.5807 18.0147 78.696 17.8317 78.8357 17.6601C78.9753 17.4884 79.0909 17.3174 79.1826 17.147C79.4347 16.6843 79.7011 16.3053 79.9816 16.01C80.2614 15.6907 80.4494 15.5298 80.5453 15.5273C80.6431 15.5968 80.8228 15.5802 81.0842 15.4774C81.345 15.3507 81.5234 15.2861 81.6194 15.2836C81.783 15.1113 82.011 15.1055 82.3032 15.266C82.401 15.3355 82.4871 15.4173 82.5616 15.5114C82.6354 15.5815 82.6736 15.6646 82.676 15.7606C82.6791 15.8805 82.6149 16.1823 82.4833 16.6658C82.3751 17.1248 82.2309 17.5846 82.0507 18.0454C81.8938 18.4816 81.7564 18.7372 81.6383 18.8123C81.6383 18.8123 81.6032 18.8492 81.5331 18.923C81.463 18.9969 81.3811 19.083 81.2877 19.1814C81.244 19.3506 81.0841 19.6668 80.8079 20.1301C80.5551 20.5688 80.2322 21.0812 79.8392 21.6676C79.4695 22.2293 79.0879 22.7913 78.6942 23.3536C78.2999 23.8919 77.9521 24.369 77.6507 24.7849C77.4194 25.127 77.1513 25.434 76.8462 25.706C76.5404 25.9539 76.2928 26.1283 76.1034 26.2292ZM86.1258 26.5833C85.1802 26.2236 84.5164 25.6164 84.1342 24.762C83.7521 23.9076 83.6265 22.7584 83.7574 21.3146C83.7862 20.5696 83.7495 20.0784 83.6474 19.8409C83.5446 19.5795 83.3582 19.3322 83.0881 19.0991C83.0136 19.0049 82.8417 18.8533 82.5722 18.6442C82.3021 18.4111 82.1775 18.2342 82.1984 18.1136C82.1701 17.9463 82.2008 17.7414 82.2906 17.4991C82.3798 17.2327 82.4601 17.0866 82.5314 17.0607C82.6975 16.9844 82.8633 16.8961 83.0288 16.7958C83.2182 16.6949 83.3616 16.6672 83.4588 16.7127C83.5547 16.7102 83.7002 16.7665 83.8953 16.8815C84.1143 16.9959 84.225 17.1011 84.2275 17.1971C84.3278 17.3626 84.4699 17.2869 84.6538 16.97C84.8617 16.6526 85.0794 16.2508 85.307 15.7648C85.537 15.3748 85.8277 15.0072 86.1789 14.662C86.5301 14.3169 86.8823 14.0077 87.2354 13.7345C87.6118 13.4367 87.9301 13.2124 88.1903 13.0617C88.3091 13.0106 88.5351 12.9328 88.8686 12.8282C89.226 12.7229 89.596 12.6414 89.9786 12.5835C90.3607 12.5016 90.6479 12.4702 90.8405 12.4893C91.273 12.5021 91.7334 12.6703 92.2219 12.9939C92.7104 13.3174 93.0903 13.6197 93.3617 13.9008C93.6791 14.1087 93.8917 14.4394 93.9994 14.8927C94.1305 15.3215 94.1902 15.7761 94.1786 16.2566C94.167 16.737 94.0815 17.1474 93.9222 17.4876C93.8564 17.7294 93.6131 18.0717 93.1924 18.5147C92.7717 18.9577 92.3026 19.3899 91.7853 19.8114C91.2914 20.2082 90.8663 20.4833 90.5101 20.6365C90.2001 20.7165 89.8298 20.786 89.3991 20.8452C88.9679 20.8803 88.56 20.8908 88.1755 20.8767C87.8144 20.8379 87.561 20.7845 87.4152 20.7162C87.2447 20.6245 87.1017 20.6642 86.9861 20.8353C86.8938 20.9817 86.8204 21.3917 86.7657 22.0654C86.7485 22.3299 86.7544 22.5578 86.7833 22.7491C86.8362 22.9398 86.8879 23.0825 86.9384 23.1773C87.1137 23.4609 87.2872 23.6725 87.4589 23.8121C87.6299 23.9277 87.9427 23.9557 88.3974 23.896C88.852 23.8362 89.3007 23.5486 89.7436 23.033C90.2098 22.4928 90.6309 22.0618 91.0067 21.7401C91.0984 21.5696 91.2995 21.4564 91.6102 21.4004C91.9442 21.3198 92.3407 21.3336 92.7996 21.4418C93.0679 21.6029 93.1946 21.8638 93.1799 22.2243C93.1892 22.5842 93.0108 23.1169 92.6449 23.8226C92.5772 23.9924 92.3798 24.2495 92.0525 24.5941C91.7487 24.914 91.4091 25.2469 91.0339 25.5926C90.6821 25.9138 90.388 26.1495 90.1518 26.2996C89.4419 26.702 88.7388 26.9002 88.0424 26.8941C87.346 26.888 86.7072 26.7844 86.1258 26.5833ZM88.5804 18.4174C88.9378 18.3122 89.2352 18.2085 89.4727 18.1064C89.7341 18.0036 89.982 17.8411 90.2164 17.619C90.4507 17.3969 90.7183 17.0659 91.0191 16.626C91.1082 16.3597 91.1503 16.1305 91.1454 15.9386C91.1644 15.746 91.1494 15.6264 91.1001 15.5796C90.9033 15.3926 90.6858 15.3382 90.4477 15.4164C90.233 15.4699 89.9962 15.596 89.7372 15.7948C89.5711 15.8711 89.3352 16.0332 89.0295 16.2812C88.7472 16.5045 88.4658 16.7638 88.1853 17.0591C87.9282 17.3299 87.7187 17.5873 87.5569 17.8316C87.4186 18.0512 87.398 18.1838 87.4952 18.2293C87.4497 18.3265 87.5832 18.3831 87.8957 18.399C88.2322 18.4144 88.4604 18.4205 88.5804 18.4174ZM97.5823 25.388C97.4863 25.3904 97.2562 25.3123 96.892 25.1537C96.5272 24.971 96.2955 24.8329 96.1971 24.7394C96.0242 24.5518 95.911 24.3507 95.8574 24.136C95.8033 23.8973 95.7676 23.4421 95.7502 22.7703C95.7305 22.0025 95.8642 21.1348 96.1514 20.1671C96.4379 19.1754 96.9321 17.8542 97.6338 16.2036L99.0324 13.1786C99.148 13.0076 99.2523 12.8608 99.3452 12.7384C99.4374 12.592 99.542 12.4572 99.6589 12.3342C99.7068 12.3329 99.7668 12.3314 99.8388 12.3296C99.9348 12.3271 100.007 12.3372 100.056 12.36C100.272 12.3784 100.611 12.5017 101.074 12.7299C101.56 12.9575 101.857 13.3099 101.965 13.7873C101.973 14.0992 101.935 14.4723 101.85 14.9066C101.764 15.317 101.49 15.8642 101.028 16.5483C100.842 16.7932 100.659 17.146 100.479 17.6068C100.323 18.067 100.178 18.5029 100.044 18.9144C100.022 18.963 99.9528 19.0849 99.8377 19.2799C99.7461 19.4503 99.6548 19.6327 99.5637 19.8271C99.4721 19.9975 99.4269 20.1067 99.4281 20.1547L99.2925 20.4823L100.801 18.931C101.853 17.8235 102.745 17.0323 103.477 16.5573C104.209 16.0823 104.828 15.8743 105.333 15.9333C105.863 15.9917 106.291 16.2808 106.616 16.8005C106.79 17.0361 106.917 17.297 106.996 17.583C107.075 17.8451 107.131 18.1557 107.164 18.515C107.198 18.8743 107.197 19.3304 107.164 19.8835L107.217 21.9348C107.669 21.8031 108.015 21.6982 108.253 21.62C108.49 21.5179 108.728 21.4277 108.966 21.3496C109.157 21.2966 109.347 21.2437 109.538 21.1908C109.753 21.1372 110.016 21.0944 110.327 21.0624C110.311 21.3749 110.189 21.7622 109.961 22.2242C109.733 22.6863 109.445 23.1498 109.096 23.6149C108.772 24.0794 108.41 24.4729 108.01 24.7953C107.635 25.1171 107.279 25.2823 106.943 25.2909C106.631 25.299 106.269 25.2123 105.856 25.0308C105.442 24.8254 105.084 24.4265 104.781 23.8341C104.677 23.5247 104.571 23.1673 104.465 22.7619C104.358 22.3565 104.299 21.9259 104.288 21.47L104.247 19.8866C104.243 19.7426 104.229 19.647 104.203 19.5996C104.202 19.5276 104.189 19.4919 104.165 19.4926C104.069 19.495 103.763 19.755 103.248 20.2724C102.758 20.7892 102.255 21.3303 101.742 21.8957C100.668 23.0758 99.766 23.9513 99.0364 24.5223C98.3309 25.0926 97.8462 25.3812 97.5823 25.388ZM120.752 25.9436C120.506 25.7099 120.305 25.391 120.151 24.9868C119.996 24.5586 119.839 24.0705 119.681 23.5224C119.628 23.3317 119.599 23.1164 119.592 22.8765C119.61 22.6359 119.605 22.444 119.577 22.3007C119.51 22.4705 119.395 22.6895 119.234 22.9577C119.097 23.2253 118.958 23.421 118.817 23.5447C118.724 23.6431 118.513 23.8406 118.184 24.1371C117.855 24.4097 117.525 24.6343 117.193 24.8109C116.415 25.3351 115.713 25.5933 115.089 25.5853C114.488 25.5528 113.952 25.2545 113.481 24.6904C113.089 24.3884 112.767 24.0006 112.515 23.5269C112.262 23.0532 112.2 22.4787 112.326 21.8032C112.353 20.9622 112.452 20.1434 112.623 19.3467C112.794 18.5261 113.162 17.4362 113.727 16.0772C114.206 15.0806 114.57 14.3029 114.82 13.7443C115.069 13.1857 115.229 12.8575 115.298 12.7597C115.655 12.6304 116.099 12.631 116.631 12.7614C117.162 12.8677 117.456 13.0882 117.512 13.4229C117.662 13.6591 117.674 14.115 117.547 14.7904C117.42 15.4419 117.151 16.1931 116.741 17.0439C116.426 17.8683 116.123 18.6684 115.831 19.4442C115.563 20.2193 115.399 20.8718 115.341 21.4014C115.307 21.9305 115.459 22.2507 115.798 22.362C116.017 22.4764 116.328 22.4564 116.733 22.3019C117.161 22.1468 117.653 21.702 118.211 20.9674C118.768 20.2328 119.35 19.0774 119.958 17.5013C120.138 17.0165 120.271 16.5929 120.357 16.2306C120.444 15.8442 120.493 15.4228 120.505 14.9664C120.45 14.6797 120.514 14.3779 120.698 14.0611C120.906 13.7436 121.151 13.4972 121.435 13.3219C121.528 13.1994 121.657 13.0881 121.822 12.9878C121.987 12.8635 122.095 12.8607 122.146 12.9794L122.721 12.9286C122.817 12.9022 122.927 12.9953 123.053 13.2082C123.178 13.421 123.302 13.5739 123.424 13.6668C123.694 13.8759 123.826 14.3406 123.821 15.061C123.815 15.7814 123.553 16.7965 123.035 18.1063C122.604 19.1017 122.311 19.8535 122.156 20.3616C122.025 20.8692 121.954 21.3632 121.943 21.8436C121.954 22.2755 121.999 22.6464 122.079 22.9565C122.159 23.2425 122.382 23.5369 122.75 23.8395C123.018 24.0006 123.17 24.2848 123.204 24.6921C123.262 25.0747 123.283 25.4103 123.266 25.6988C123.224 25.916 123.036 26.0649 122.702 26.1455C122.392 26.2495 122.045 26.2825 121.66 26.2444C121.299 26.2057 120.996 26.1054 120.752 25.9436ZM129.232 26.4455C127.912 26.4795 126.883 26.1219 126.143 25.3727C125.427 24.6228 125.049 23.4562 125.008 21.8727C124.986 21.009 125.118 20.0573 125.403 19.0176C125.712 17.9773 126.118 16.9585 126.621 15.9612C127.147 14.9633 127.725 14.0962 128.354 13.3597C128.983 12.5993 129.618 12.0668 130.258 11.7622C130.495 11.6361 130.745 11.5456 131.007 11.4908C131.293 11.4114 131.568 11.3683 131.832 11.3615C132.12 11.3541 132.433 11.3701 132.77 11.4094C133.13 11.4241 133.468 11.4875 133.783 11.5994C134.339 11.7531 134.827 12.0647 135.247 12.534C135.692 13.0027 135.926 13.6929 135.949 14.6046C135.955 14.8445 135.938 15.1091 135.897 15.3982C135.856 15.6634 135.779 15.9294 135.666 16.1964C135.374 16.9962 134.914 17.7643 134.285 18.5008C133.68 19.2366 133.033 19.7574 132.344 20.0632C132.155 20.1641 131.965 20.2411 131.774 20.294C131.607 20.3223 131.427 20.3389 131.235 20.3439C130.731 20.3569 130.274 20.2966 129.862 20.1632C129.475 20.0291 129.11 19.8464 128.768 19.6152L128.473 19.3707L128.303 19.7352C128.146 20.1954 128.036 20.5823 127.972 20.8961C127.932 21.2092 127.914 21.4377 127.918 21.5817C127.925 21.8696 127.945 22.1692 127.977 22.4805C128.009 22.7678 128.087 23.0058 128.212 23.1947C128.311 23.3122 128.433 23.405 128.579 23.4733C128.749 23.541 128.954 23.5717 129.193 23.5655C129.337 23.5618 129.469 23.5584 129.589 23.5553C129.733 23.5276 129.852 23.5005 129.947 23.4741C130.377 23.367 130.721 23.2021 130.979 22.9794C131.261 22.732 131.555 22.5204 131.863 22.3444L132.005 22.2687L131.966 22.1617C132.369 21.9352 132.641 21.7962 132.784 21.7445C132.926 21.6688 133.032 21.606 133.103 21.5562C133.197 21.4578 133.303 21.407 133.423 21.4039C133.758 21.3473 134.084 21.4349 134.402 21.6668C134.744 21.8741 134.919 22.1456 134.927 22.4815C134.931 22.6255 134.829 22.8562 134.621 23.1736C134.437 23.4905 134.193 23.8089 133.89 24.1288C133.609 24.4241 133.315 24.6598 133.007 24.8357C132.936 24.8616 132.865 24.8994 132.794 24.9493C132.723 24.9751 132.652 25.013 132.581 25.0628L132.617 25.0619C132.409 25.3553 132.196 25.5048 131.98 25.5104L131.693 25.5178C131.601 25.6882 131.294 25.8762 130.771 26.0817C130.249 26.3113 129.735 26.4325 129.232 26.4455ZM130.88 17.7242C131.096 17.7186 131.287 17.6777 131.453 17.6014C131.643 17.5245 131.821 17.4358 131.986 17.3356C132.551 16.9129 132.91 16.3755 133.061 15.7233C133.212 15.0712 133.139 14.5809 132.843 14.2525C132.793 14.1817 132.732 14.1353 132.659 14.1132C132.586 14.067 132.501 14.0452 132.405 14.0477C132.142 14.0545 131.844 14.1462 131.512 14.3228C131.205 14.4987 130.899 14.7467 130.595 15.0666C130.291 15.3865 130.013 15.7658 129.76 16.2045L129.312 16.9723C129.359 16.9471 129.395 16.9341 129.419 16.9335C129.466 16.9083 129.502 16.8954 129.526 16.8947C129.742 16.8892 129.888 16.9575 129.963 17.0996C130.039 17.2417 130.127 17.3834 130.226 17.5249C130.35 17.6658 130.568 17.7322 130.88 17.7242ZM148.228 25.5241C147.404 25.2092 146.795 24.8768 146.402 24.5268C146.032 24.1522 145.88 23.82 145.944 23.5302C145.989 23.3851 146.069 23.2509 146.186 23.1279C146.303 23.0048 146.566 22.9501 146.974 22.9635C147.406 22.9524 148.068 23.0434 148.962 23.2365C149.226 23.2297 149.489 23.2109 149.753 23.1801C150.016 23.1493 150.255 23.1071 150.47 23.0536C150.708 22.9994 150.899 22.9345 151.041 22.8588C151.159 22.8077 151.194 22.7468 151.144 22.6761C151.094 22.5814 151.007 22.4875 150.885 22.3947C150.786 22.2772 150.676 22.208 150.555 22.1871C150.434 22.1422 150.325 22.121 150.229 22.1234C150.178 22.0047 150.067 21.8875 149.896 21.7719C149.749 21.6557 149.566 21.5283 149.346 21.3899C148.807 20.9717 148.318 20.6002 147.877 20.2754C147.437 19.9506 147.262 19.703 147.354 19.5326C147.351 19.4367 147.35 19.3887 147.35 19.3887C147.35 19.3647 147.349 19.3527 147.349 19.3527C147.181 19.357 147.019 19.1331 146.864 18.681C146.707 18.2048 146.624 17.7748 146.614 17.3909C146.602 16.9111 146.686 16.4288 146.865 15.944C147.069 15.4586 147.321 14.996 147.622 14.5561C147.947 14.1156 148.273 13.723 148.6 13.3785C149.045 12.9349 149.514 12.5027 150.007 12.0818C150.524 11.6364 151.078 11.238 151.669 10.8867C152.284 10.5347 152.961 10.2532 153.7 10.0421C154.034 9.96147 154.417 9.9156 154.848 9.90448C155.28 9.89335 155.594 9.9453 155.789 10.0603C155.978 9.93542 156.218 9.96522 156.511 10.1497C156.804 10.3103 157.098 10.5428 157.394 10.8473C157.689 11.1517 157.913 11.4581 158.065 11.7663C158.073 12.0542 158.07 12.4144 158.057 12.8468C158.068 13.2547 158.053 13.6152 158.013 13.9283C157.973 14.2415 157.869 14.4002 157.701 14.4045C157.701 14.4045 157.666 14.4174 157.594 14.4433C157.546 14.4445 157.524 14.5051 157.527 14.6251C157.533 14.865 157.36 15.1455 157.008 15.4667C156.561 15.7903 156.135 16.0534 155.732 16.2558C155.329 16.4583 155.018 16.4783 154.797 16.3159C154.651 16.2237 154.517 16.1311 154.394 16.0382C154.272 15.9453 154.161 15.8281 154.061 15.6867C154.061 15.6867 154.024 15.6396 153.949 15.5455C153.898 15.4268 153.872 15.3194 153.869 15.2235C153.867 15.1275 153.9 15.0426 153.971 14.9688C154.04 14.8709 154.075 14.822 154.075 14.822C154.403 14.5015 154.647 14.2071 154.808 13.9388C154.993 13.67 155.12 13.4387 155.187 13.2449C155.253 13.0271 155.285 12.8582 155.282 12.7383C155.278 12.5943 155.24 12.5113 155.167 12.4891C155.118 12.4424 154.997 12.4215 154.805 12.4264C154.685 12.4295 154.424 12.5323 154.021 12.7347C153.642 12.9365 153.24 13.187 152.816 13.486C152.391 13.761 152.061 14.0096 151.827 14.2317C151.735 14.4021 151.666 14.5119 151.619 14.5612C151.597 14.6098 151.537 14.6353 151.441 14.6378C151.439 14.5418 151.379 14.5553 151.262 14.6784C151.145 14.8014 151.006 14.9731 150.843 15.1933C150.681 15.4136 150.519 15.6458 150.357 15.8901C150.195 16.1343 150.068 16.3297 149.976 16.4761C149.958 16.6926 149.903 16.8981 149.812 17.0925C149.744 17.2623 149.725 17.4429 149.754 17.6342C149.784 17.8735 149.91 18.0983 150.131 18.3087C150.353 18.5191 150.672 18.787 151.088 19.1123C151.944 19.7145 152.581 20.1903 152.998 20.5397C153.439 20.8884 153.746 21.1686 153.92 21.3802C154.093 21.5918 154.207 21.8049 154.26 22.0196C154.687 22.7529 154.752 23.3994 154.454 23.9593C154.156 24.4951 153.687 24.9154 153.046 25.22C152.809 25.3461 152.392 25.4649 151.795 25.5763C151.198 25.7117 150.564 25.7761 149.891 25.7694C149.243 25.786 148.689 25.7043 148.228 25.5241ZM161.384 23.7088C160.918 23.3127 160.511 22.903 160.164 22.4798C159.816 22.0326 159.57 21.3427 159.426 20.4101C159.367 19.9795 159.4 19.3784 159.524 18.607C159.648 17.8355 159.843 17.0262 160.11 16.1791C160.375 15.308 160.667 14.5082 160.984 13.7798C161.302 13.0514 161.624 12.5149 161.951 12.1704C162.23 11.8031 162.582 11.5059 163.008 11.2788C163.459 11.0512 163.927 11.0391 164.412 11.2427C164.684 11.5478 164.827 11.9763 164.841 12.5281C164.879 13.0553 164.76 13.5505 164.483 14.0138C164.02 14.6739 163.621 15.5005 163.287 16.4934C162.976 17.4617 162.77 18.3313 162.67 19.1022C162.516 19.6583 162.455 20.092 162.487 20.4033C162.519 20.6906 162.691 20.8662 163.005 20.9301C163.464 21.0384 163.928 20.8943 164.398 20.4981C164.892 20.1013 165.358 19.5251 165.794 18.7696C166.255 18.0135 166.653 17.151 166.988 16.182C167.123 15.8424 167.221 15.4438 167.281 14.9861C167.366 14.5277 167.453 14.1894 167.543 13.971C167.651 13.4881 167.845 13.1109 168.126 12.8396C168.431 12.5437 168.75 12.3554 169.084 12.2748C169.418 12.1941 169.671 12.2236 169.843 12.3633C170.061 12.4537 170.293 12.6037 170.538 12.8135C170.784 13.0232 170.89 13.4046 170.856 13.9577C170.879 14.8454 170.706 15.6061 170.339 16.2398C169.971 16.8734 169.664 17.5416 169.418 18.2441C169.215 18.7535 168.882 19.3503 168.42 20.0344C167.957 20.7186 167.457 21.3436 166.919 21.9097C166.406 22.4751 165.924 22.8596 165.473 23.0633C164.812 23.5125 164.135 23.794 163.442 23.9079C162.748 23.9978 162.062 23.9314 161.384 23.7088ZM175.077 23.8603C175.005 23.8862 174.849 23.8782 174.608 23.8364C174.391 23.7939 174.161 23.7398 173.919 23.674C173.702 23.6076 173.568 23.551 173.519 23.5043C173.42 23.4108 173.284 23.2463 173.11 23.0107C172.935 22.7511 172.83 22.4057 172.795 21.9744C172.784 21.5426 172.975 21.0215 173.367 20.4112C173.481 20.1682 173.616 19.8046 173.771 19.3204C173.927 18.8362 174.082 18.3281 174.236 17.7959C174.414 17.2392 174.569 16.743 174.702 16.3075C174.859 15.8713 174.971 15.5683 175.039 15.3985C175.076 14.9894 175.045 14.7021 174.945 14.5366C174.868 14.3465 174.661 14.2438 174.324 14.2285C174.084 14.2347 173.89 14.1556 173.742 13.9914C173.618 13.8265 173.55 13.5282 173.539 13.0963C173.578 12.7592 173.655 12.4691 173.769 12.2261C173.906 11.9585 174.092 11.7376 174.328 11.5635C174.565 11.4374 174.862 11.3457 175.221 11.2884C175.604 11.2306 175.975 11.209 176.336 11.2237C176.696 11.2384 176.95 11.3159 177.098 11.4562C177.268 11.5478 177.406 11.7603 177.51 12.0937C177.638 12.4026 177.743 12.724 177.823 13.058C177.904 13.392 177.959 13.6427 177.987 13.8101C178.222 13.6119 178.479 13.3412 178.758 12.9979C179.061 12.63 179.364 12.2861 179.668 11.9662C180.045 11.6924 180.494 11.4167 181.015 11.1392C181.535 10.8377 181.916 10.6839 182.156 10.6777C182.419 10.6709 182.747 10.7945 183.137 11.0485C183.527 11.2786 183.773 11.4883 183.874 11.6778C184.124 12.0795 184.303 12.507 184.411 12.9604C184.542 13.3891 184.48 13.7749 184.225 14.1176C183.993 14.4356 183.665 14.7562 183.241 15.0792C182.817 15.3782 182.279 15.4761 181.628 15.3728C181.483 15.3285 181.322 15.1526 181.147 14.845C180.995 14.5369 180.905 14.3111 180.877 14.1678C180.875 14.0958 180.769 14.1705 180.559 14.392C180.372 14.5889 180.138 14.835 179.857 15.1303C179.601 15.425 179.356 15.6954 179.122 15.9415C178.727 16.4559 178.313 17.1508 177.879 18.0262C177.446 18.9017 176.933 19.9592 176.341 21.1989C176.068 21.8061 175.843 22.3881 175.665 22.9449C175.487 23.4776 175.291 23.7828 175.077 23.8603Z" fill="#FAFAF9"/>
<rect y="43.0248" width="128.043" height="60.4824" fill="#20201F"/>
<path d="M30.8331 57.5612L30.586 61.1438H9.33741V52.4343H39.975V59.0436L18.1704 89.4959L16.6262 85.7897H40.2221V94.4992H8.90503V87.8281L30.8331 57.5612Z" fill="#FAFAF9"/>
<path d="M51.9674 78.3157H71.7335V86.6545H51.9674V78.3157ZM42.7638 94.4992L57.7119 52.4343H67.6568L81.8637 94.4992H72.7219L61.2328 58.6113H64.1977L51.8438 94.4992H42.7638Z" fill="#FAFAF9"/>
<path d="M85.7233 94.4992V52.4343H94.7416V94.4992H85.7233ZM108.887 94.4992L91.5296 74.2389V72.8182L109.443 52.4343H120.623L100.919 74.8566L101.166 72.1387L120.623 94.4992H108.887Z" fill="#FAFAF9"/>
<path d="M128.83 103.559C128.519 103.775 127.805 103.529 126.688 102.821C125.571 102.165 124.637 101.426 123.884 100.605C123.508 100.195 123.262 99.7556 123.147 99.2872C123.032 98.8187 123.039 97.9291 123.168 96.6183C123.366 96.0385 123.459 95.4871 123.447 94.9641C123.488 94.44 123.507 94.0734 123.502 93.8642C123.496 93.5504 123.558 92.8165 123.691 91.6626C123.876 90.5075 124.06 89.3001 124.243 88.0404C124.424 86.7285 124.586 85.7309 124.729 85.0476C124.728 84.9953 124.75 84.8117 124.796 84.4968C124.894 84.1807 124.968 83.9437 125.017 83.7857C125.112 83.3127 125.23 82.7346 125.373 82.0513C125.516 81.3681 125.653 80.4495 125.786 79.2955C126.178 77.979 126.491 76.6904 126.726 75.4296C127.013 74.1153 127.151 73.2229 127.141 72.7522C127.12 71.8108 127.473 71.123 128.198 70.6888C128.245 70.4262 128.394 70.0305 128.645 69.5019C128.895 68.921 129.121 68.4452 129.323 68.0746C130.308 65.071 131.122 62.6727 131.766 60.8799C132.41 59.087 133.085 57.529 133.791 56.2057C134.087 55.3098 134.408 54.3872 134.755 53.438C135.154 52.4875 135.558 51.7463 135.967 51.2143C136.318 50.4742 136.929 49.5715 137.798 48.5063C138.719 47.3877 139.693 46.3202 140.721 45.3039C141.749 44.2876 142.572 43.5373 143.192 43.053C144.334 42.4528 145.399 41.9589 146.388 41.5713C147.377 41.1837 148.422 40.978 149.524 40.9542C150.521 40.9327 151.392 41.1493 152.136 41.6041C152.933 42.0055 154.106 42.8696 155.657 44.1965C156.196 44.8651 156.473 45.5131 156.486 46.1407C156.5 46.7682 156.38 47.2941 156.127 47.7181C155.777 48.5628 155.249 49.6206 154.542 50.8916C153.833 52.1103 153.149 53.2239 152.488 54.2323C151.826 55.1884 151.338 55.6959 151.025 55.755C150.403 56.1347 149.75 56.2535 149.064 56.1113C148.379 55.9691 148.027 55.5058 148.01 54.7214C148.003 54.3553 147.995 54.0154 147.988 53.7016C148.034 53.3867 148.057 53.2292 148.057 53.2292C148.2 52.5459 148.37 51.9405 148.569 51.413C148.82 50.8844 149.046 50.4348 149.248 50.0642C149.653 49.3752 149.744 48.7192 149.521 48.0962C149.35 47.472 148.688 47.2247 147.536 47.3542C147.381 47.4622 147.072 47.7305 146.609 48.1591C146.197 48.5342 145.735 48.9889 145.221 49.5233C144.759 50.0041 144.35 50.4839 143.992 50.9625C143.634 51.3888 143.457 51.6804 143.46 51.8373C143.46 51.8373 143.309 52.1283 143.007 52.7104C142.756 53.239 142.349 53.8495 141.786 54.5418C141.43 55.0728 141.126 55.5764 140.874 56.0527C140.622 56.5291 140.499 56.898 140.504 57.1595C140.509 57.3687 140.487 57.5523 140.437 57.7103C140.388 57.8683 140.259 57.9496 140.049 57.9541C140.049 57.9541 139.95 58.2179 139.751 58.7454C139.605 59.2718 139.33 59.9056 138.926 60.6468C138.728 61.1743 138.502 61.6762 138.25 62.1526C138.049 62.5755 137.846 62.8938 137.641 63.1075L137.565 63.2661C137.565 63.2661 137.441 63.5827 137.192 64.216C136.995 64.7958 136.772 65.4023 136.523 66.0355C136.274 66.6688 136.151 67.0377 136.153 67.1423C136.158 67.3515 136.475 67.4493 137.104 67.4357C137.734 67.4221 138.493 67.3272 139.382 67.151C140.269 66.9226 141.13 66.6947 141.965 66.4674C142.695 66.2423 143.218 66.1264 143.532 66.1196C143.847 66.1128 144.348 66.2066 145.034 66.4011C145.46 66.6535 145.811 67.1168 146.088 67.791C146.364 68.4129 146.562 69.0627 146.681 69.7403C146.852 70.3645 146.889 70.8346 146.79 71.1506C146.743 71.361 146.145 71.6616 144.999 72.0526C143.905 72.4425 142.809 72.7539 141.712 72.9869C140.772 73.2165 139.702 73.4751 138.501 73.7626C137.351 73.9967 136.333 74.2542 135.447 74.5349C134.559 74.7634 134.092 74.9827 134.044 75.1931C133.834 75.1976 133.653 75.3323 133.501 75.5972C133.402 75.8609 133.354 76.0974 133.359 76.3066C133.374 76.9865 133.254 77.5384 133.001 77.9625C132.903 78.2785 132.733 78.9362 132.493 79.9355C132.303 80.8814 132.089 81.9325 131.852 83.0887C131.666 84.1915 131.479 85.2419 131.29 86.2401C131.153 87.1849 131.088 87.8141 131.095 88.1279C130.788 88.5008 130.614 88.9755 130.574 89.5519C130.533 90.076 130.517 90.5472 130.526 90.9656C130.325 91.3885 130.203 91.7836 130.158 92.1508C130.112 92.4657 130.092 92.7278 130.096 92.9369C130.097 92.9892 130.1 93.0938 130.103 93.2507C130.106 93.4076 130.084 93.5651 130.034 93.7231C129.993 94.2472 129.929 94.9288 129.842 95.7678C129.809 96.658 129.802 97.5215 129.82 98.3582L129.633 100.638C129.595 101.319 129.502 101.897 129.355 102.371C129.261 102.896 129.086 103.292 128.83 103.559Z" fill="url(#paint0_linear_93_4032)"/>
<path d="M149.575 92.2809C149.146 91.8715 148.818 91.2508 148.59 90.4185C148.415 89.5852 148.345 88.7757 148.38 87.9901C148.414 87.1522 148.532 86.5218 148.733 86.0989C148.724 85.6805 148.77 85.3656 148.87 85.1542C149.022 84.8893 149.069 84.6528 149.012 84.4447C148.955 84.2367 149 83.8695 149.146 83.3431C149.292 82.8167 149.439 82.3165 149.586 81.8424C149.935 80.9977 150.332 79.9166 150.776 78.5989C151.218 77.229 151.661 75.8591 152.104 74.4891C152.546 73.0669 152.913 71.8556 153.207 70.8551C153.499 69.8024 153.669 69.1708 153.717 68.9605C153.703 68.3329 154.116 67.9839 154.954 67.9135C155.579 67.6907 156.346 67.9358 157.253 68.6487C158.161 69.3616 158.886 70.1308 159.429 70.9562C159.858 71.3655 160.027 71.9112 159.937 72.5934C159.847 73.2755 159.527 74.2504 158.977 75.518C158.776 75.9409 158.529 76.6526 158.235 77.653C157.993 78.6 157.827 79.3885 157.735 80.0183C157.534 80.4412 157.285 81.0483 156.987 81.8396C156.741 82.5774 156.52 83.2885 156.325 83.9729C156.225 84.2367 156.131 84.7357 156.042 85.4702C155.952 86.1523 155.836 86.8612 155.694 87.5967C155.553 88.3323 155.355 88.9121 155.102 89.3361C154.676 91.4905 153.864 92.7638 152.665 93.1559C151.518 93.5469 150.488 93.2553 149.575 92.2809ZM157.395 60.6404C156.809 60.2345 156.353 59.7473 156.025 59.1788C155.749 58.5569 155.58 58.0112 155.518 57.5416C155.507 57.0709 155.554 56.7822 155.656 56.6753C156.169 56.0887 156.598 55.3208 156.945 54.3715C157.345 53.421 157.772 52.5485 158.227 51.7538C158.329 51.5947 158.455 51.3827 158.607 51.1178C158.81 50.7995 159.016 50.6119 159.225 50.5551C159.845 50.1231 160.712 50.1305 161.824 50.5774C162.988 51.0232 163.842 51.6588 164.384 52.4842C164.878 53.4677 165.031 54.4846 164.844 55.5351C164.709 56.5845 164.182 57.6946 163.262 58.8655C162.498 59.9285 161.516 60.6299 160.316 60.9697C159.115 61.2573 158.141 61.1475 157.395 60.6404Z" fill="url(#paint1_linear_93_4032)"/>
<path d="M175.057 93.5357C174.318 93.3424 173.576 92.9922 172.83 92.485C172.084 91.9779 171.31 91.3929 170.508 90.7301C169.861 89.9069 169.398 89.1582 169.121 88.484C168.843 87.7575 168.668 86.9241 168.595 85.9839C168.574 84.9903 168.546 83.7351 168.514 82.2185C168.5 81.5909 168.586 80.6996 168.771 79.5445C169.008 78.3883 169.245 77.1798 169.48 75.919C169.768 74.6571 170.033 73.5526 170.275 72.6056C170.515 71.6063 170.659 70.9491 170.704 70.6342C170.847 69.951 170.576 69.5644 169.892 69.4745C169.208 69.3847 168.446 69.3749 167.608 69.4454C166.821 69.4624 166.295 69.3952 166.029 69.244C165.818 69.1962 165.707 68.937 165.697 68.4663C165.686 67.9434 165.68 67.6819 165.68 67.6819C165.676 67.4727 165.568 67.3442 165.357 67.2965C165.145 67.1964 164.957 67.0173 164.794 66.7592C164.685 66.5523 164.807 66.1572 165.162 65.574C165.517 64.9908 165.982 64.6407 166.557 64.5236C167.027 64.4088 167.733 64.3151 168.677 64.2424C169.619 64.1174 170.559 63.914 171.498 63.6321C172.488 63.2968 173.239 62.8097 173.75 62.1708C174.197 61.0101 174.695 59.7697 175.244 58.4498C175.792 57.0776 176.318 55.889 176.821 54.8841C177.323 53.8268 177.676 53.1651 177.88 52.8991C178.762 52.4092 179.676 52.2063 180.623 52.2905C181.568 52.3224 182.313 52.7511 182.855 53.5765C183.126 53.9369 183.341 54.1939 183.502 54.3474C183.715 54.4997 183.799 54.7334 183.753 55.0483C183.76 55.3621 183.563 55.9419 183.161 56.7877C182.811 57.5801 182.207 58.8227 181.352 60.5155C181.101 61.0441 180.875 61.5199 180.674 61.9428C180.472 62.3134 180.371 62.4987 180.371 62.4987C180.582 62.5465 180.897 62.5658 181.317 62.5568C181.737 62.5477 182.261 62.5102 182.889 62.4443C183.464 62.3273 184.092 62.2352 184.773 62.1682C185.453 62.0489 186.056 62.0359 186.583 62.1291C187.79 62.1031 188.689 62.4237 189.281 63.0911C189.873 63.7585 190.206 64.6146 190.281 65.6595C190.399 66.2325 190.2 66.7338 189.684 67.1635C189.168 67.5933 188.202 67.8234 186.786 67.854C186.313 67.8642 185.632 67.9051 184.741 67.9766C183.85 68.0482 182.933 68.1203 181.99 68.193C181.047 68.2657 180.235 68.3617 179.555 68.481C178.927 68.5469 178.614 68.6322 178.616 68.7368C178.461 68.8447 178.207 69.2688 177.856 70.0089C177.556 70.6956 177.233 71.5397 176.887 72.5413C176.594 73.5417 176.326 74.4893 176.082 75.384C175.754 77.1701 175.528 78.9016 175.407 80.5785C175.286 82.2554 175.291 83.7203 175.423 84.9732C175.607 86.1726 175.94 87.0287 176.424 87.5415C176.906 88.002 177.614 87.9867 178.549 87.4956C179.534 86.9511 180.439 86.3299 181.264 85.6319C182.192 84.827 183 84.5741 183.689 84.8732C184.376 85.1199 184.808 85.6861 184.985 86.5718C185.213 87.404 184.997 88.3243 184.336 89.3327C183.728 90.3399 182.854 91.196 181.714 91.9008C180.575 92.6056 179.405 93.1017 178.203 93.3893C177.003 93.7291 175.955 93.7779 175.057 93.5357Z" fill="url(#paint2_linear_93_4032)"/>
<path d="M198.389 79.9252C196.925 80.2184 195.758 79.642 194.887 78.1957C194.015 76.6972 194.01 74.0551 194.873 70.2693C195.174 69.6349 195.424 69.0278 195.621 68.448C195.818 67.8159 195.912 67.3168 195.904 66.9507C196.099 66.2663 196.344 65.4762 196.64 64.5804C196.987 63.6311 197.336 62.7602 197.686 61.9678C198.035 61.1232 198.286 60.5684 198.437 60.3035C198.647 60.2989 198.853 60.1114 199.055 59.7408C199.31 59.369 199.433 59.0001 199.425 58.634C199.416 58.2156 199.484 57.7433 199.631 57.2169C199.829 56.6894 200.031 56.3188 200.236 56.105C200.231 55.8435 200.329 55.5536 200.533 55.2353C200.736 54.917 200.835 54.6533 200.83 54.4441C200.826 54.2349 200.874 54.0507 200.976 53.8915C201.13 53.7313 201.205 53.5465 201.2 53.3373C201.654 52.4904 202.231 51.2483 202.931 49.6113C203.682 47.9207 204.405 46.1524 205.1 44.3061C205.847 42.4587 206.468 40.8233 206.962 39.3999C207.456 37.9766 207.7 37.108 207.693 36.7942C207.789 36.3736 207.938 35.9779 208.14 35.6073C208.342 35.2367 208.654 35.0992 209.076 35.1947C209.282 35.0333 209.595 34.948 210.015 34.939C210.434 34.8776 210.748 34.8446 210.958 34.8401C210.958 34.8401 211.196 34.9396 211.673 35.1386C212.15 35.3376 212.576 35.6423 212.953 36.0528C213.38 36.4098 213.627 36.9015 213.693 37.5279C213.759 38.1544 213.799 38.7814 213.812 39.409C213.781 40.4037 213.438 41.5361 212.783 42.8059C212.128 44.0758 211.398 45.4781 210.591 47.0129C210.088 48.0179 209.583 48.9705 209.078 49.8709C208.625 50.7702 208.401 51.3244 208.405 51.5336C208.41 51.7428 208.311 52.0588 208.111 52.4818C207.91 52.9047 207.685 53.4327 207.436 54.066C207.133 54.5957 206.831 55.2301 206.532 55.9691C206.286 56.7069 206.065 57.3919 205.868 58.024C205.671 58.6038 205.574 58.9721 205.577 59.129C205.529 59.3393 205.455 59.5502 205.355 59.7617C205.307 59.972 205.18 60.184 204.975 60.3978C204.765 60.4023 204.637 60.562 204.591 60.8769C204.597 61.1384 204.6 61.2692 204.6 61.2692C204.604 61.4784 204.484 61.978 204.238 62.7681C204.044 63.5048 203.696 64.4018 203.194 65.4591C202.257 68.2524 201.597 70.4903 201.213 72.1729C200.829 73.8032 200.596 75.1948 200.516 76.3476C200.438 77.605 200.168 78.4741 199.706 78.955C199.243 79.3836 198.804 79.707 198.389 79.9252ZM194.48 92.1745C193.387 92.6167 192.473 92.8195 191.737 92.7831C191.003 92.7989 190.182 92.4766 189.276 91.816C188.204 90.7927 187.814 89.7547 188.106 88.7019C188.45 87.5957 189.372 86.5294 190.872 85.5029C191.906 84.8003 192.66 84.444 193.132 84.4338C193.655 84.3702 194.42 84.5368 195.426 84.9336C197.234 85.9934 198.047 87.2054 197.867 88.5696C197.685 89.8816 196.556 91.0832 194.48 92.1745Z" fill="url(#paint3_linear_93_4032)"/>
<defs>
<linearGradient id="paint0_linear_93_4032" x1="123.18" y1="103.751" x2="185.042" y2="14.8341" gradientUnits="userSpaceOnUse">
<stop stop-color="#A6E93F"/>
<stop offset="0.858555" stop-color="#FF9C3F"/>
</linearGradient>
<linearGradient id="paint1_linear_93_4032" x1="123.18" y1="103.751" x2="185.042" y2="14.8341" gradientUnits="userSpaceOnUse">
<stop stop-color="#A6E93F"/>
<stop offset="0.858555" stop-color="#FF9C3F"/>
</linearGradient>
<linearGradient id="paint2_linear_93_4032" x1="123.18" y1="103.751" x2="185.042" y2="14.8341" gradientUnits="userSpaceOnUse">
<stop stop-color="#A6E93F"/>
<stop offset="0.858555" stop-color="#FF9C3F"/>
</linearGradient>
<linearGradient id="paint3_linear_93_4032" x1="123.18" y1="103.751" x2="185.042" y2="14.8341" gradientUnits="userSpaceOnUse">
<stop stop-color="#A6E93F"/>
<stop offset="0.858555" stop-color="#FF9C3F"/>
</linearGradient>
</defs>
</svg>
